<svg xmlns="http://www.w3.org/2000/svg" xmlns:xlink="http://www.w3.org/1999/xlink" version="1.1" x="0px" y="0px" viewBox="0 0 100 100" enable-background="new 0 0 100 100" xml:space="preserve"><path fill="none" stroke="#000000" stroke-miterlimit="10" d="M35.97,13.933c2.077-1.201,0.759-4.024,7.454-4.043  c4.703-0.012,6.624,3.93,6.696,8.466c0.127,7.958-1.447,5.475-5.054,6.833c-3.664,1.378-0.227,7.047,0.759,8.763  c4.016,6.999,2.273-2.584,4.167-4.101c1.896-1.516,7.796-0.698,11.838,4.861c2.816,3.871,1.581,15.221,3.325,31.273  c1.17,10.791-7.834,2.214-15.795-12.636C47.22,49.356,38.91,33.344,39.128,26.062c0.126-4.211,5.181-2.915,6.064-6.316  c0.955-3.672-4.934-3.617-6.064-3.663c-3.032-0.127-7.848,1.543-14.666,2.909C22.352,19.415,33.601,15.308,35.97,13.933z"></path><line fill="none" stroke="#000000" stroke-miterlimit="10" x1="55.119" y1="62.776" x2="55.119" y2="91.632"></line></svg>
