<svg xmlns="http://www.w3.org/2000/svg" xmlns:xlink="http://www.w3.org/1999/xlink" version="1.1" x="0px" y="0px" viewBox="0 0 100 100" enable-background="new 0 0 100 100" xml:space="preserve"><path fill="none" stroke="#000000" stroke-miterlimit="10" d="M49.468,48.895c-14.554-0.491-19.785,2.774-12.61-12.235  c6.22-13.01,17.194,6.708,15.154,9.101"></path><path fill="none" stroke="#000000" stroke-miterlimit="10" d="M50.402,50.368c-3.507-0.265,3.291-11.356,13.24-1.824  C66.133,50.929,59.267,50.121,50.402,50.368"></path><path fill="none" stroke="#000000" stroke-miterlimit="10" d="M46.762,34.919c0.861-2.953,10.591-19.49,18.841,2.47  c4.932,13.129,0.844,11.462-1.721,11.41"></path><path fill="none" stroke="#000000" stroke-miterlimit="10" d="M67.925,46.344c0.721,0.074,9.455,0.625,9.446,2.549  c-0.006,1.01-4.032,3.351-25.288,3.383c-21.347,0.034-30.24-2.774-30.104-3.737c0.136-0.968,3.089-1.829,11.691-2.645"></path><path fill="none" stroke="#000000" stroke-miterlimit="10" d="M67.925,44.249c0.283,0.031,17.355,1.458,17.565,5.51  c0.212,4.052-25.84,5.83-36.631,5.493c-10.79-0.338-35.564-1.282-35.315-5.693c0.247-4.411,18.514-5.438,20.374-5.519"></path><path fill="none" stroke="#000000" stroke-miterlimit="10" d="M67.203,42.313c0.763,0.057,25.658,1.641,25.966,7.444  c0.306,5.804-32.398,8.496-42.788,8.555c-9.851,0.058-44.518-1.75-44.518-8.92c0-5.352,26.195-7.536,28.623-7.217"></path></svg>