<svg xmlns="http://www.w3.org/2000/svg" xmlns:xlink="http://www.w3.org/1999/xlink" version="1.1" x="0px" y="0px" viewBox="0 0 100 100" enable-background="new 0 0 100 100" xml:space="preserve"><ellipse fill="none" stroke="#000000" stroke-miterlimit="10" cx="31.741" cy="40.37" rx="24.732" ry="7.977"></ellipse><ellipse fill="none" stroke="#000000" stroke-miterlimit="10" cx="65.186" cy="51.469" rx="21.48" ry="7.187"></ellipse><ellipse fill="none" stroke="#000000" stroke-miterlimit="10" cx="46.926" cy="31.06" rx="10.406" ry="5.876"></ellipse><ellipse fill="none" stroke="#000000" stroke-miterlimit="10" cx="52.418" cy="42.055" rx="19.675" ry="7.107"></ellipse><ellipse fill="none" stroke="#000000" stroke-miterlimit="10" cx="38.405" cy="50.594" rx="15.267" ry="3.781"></ellipse><path d="M51.968,69.251c6.171-0.006,23.719,0,23.719,0S65.86,57.023,61.785,54.878c-4.076-2.146-9.111-2.276-10.682-4.084  c-1.571-1.806-7.847-7.536-6.495-10.569c8.94-20.042,5.037-12.317,0.149-5.329c-6.193,8.849-9.586,3.014-5.302,6.644  c4.142,3.51,6.009,10.131,6.009,10.131c-5.892-1.996-19.201-0.704-14.055-0.942c5.1-0.235,15.403,4.409,18.594,6.191  C69.003,67.536,44.035,69.26,51.968,69.251z"></path></svg>